<svg xmlns="http://www.w3.org/2000/svg" width="411" height="200" viewBox="0 0 411 200"><g transform="translate(0 -751.358)"><g transform="translate(0 751.358)"><path d="M0,0H411V200H0Z" transform="translate(0 0)" fill="rgba(255,255,255,0)"/></g><path d="M1.47-9.8h1.4V0H1.47ZM8.848.084a4.121,4.121,0,0,1-2.023-.49A3.59,3.59,0,0,1,5.432-1.757a3.793,3.793,0,0,1-.5-1.953,3.793,3.793,0,0,1,.5-1.953A3.541,3.541,0,0,1,6.825-7.007,4.169,4.169,0,0,1,8.848-7.49a3.883,3.883,0,0,1,1.8.406,2.892,2.892,0,0,1,1.225,1.176L10.85-5.25a2.283,2.283,0,0,0-.868-.8,2.476,2.476,0,0,0-1.148-.266,2.654,2.654,0,0,0-1.309.322,2.3,2.3,0,0,0-.91.917A2.774,2.774,0,0,0,6.286-3.71a2.8,2.8,0,0,0,.329,1.379,2.3,2.3,0,0,0,.91.917,2.654,2.654,0,0,0,1.309.322,2.476,2.476,0,0,0,1.148-.266,2.283,2.283,0,0,0,.868-.8l1.022.644A2.936,2.936,0,0,1,10.647-.329,3.829,3.829,0,0,1,8.848.084Zm7.826,0a4.024,4.024,0,0,1-1.988-.49,3.553,3.553,0,0,1-1.379-1.351,3.835,3.835,0,0,1-.5-1.953,3.835,3.835,0,0,1,.5-1.953,3.5,3.5,0,0,1,1.379-1.344,4.07,4.07,0,0,1,1.988-.483,4.03,4.03,0,0,1,1.981.483,3.517,3.517,0,0,1,1.372,1.344,3.835,3.835,0,0,1,.5,1.953,3.835,3.835,0,0,1-.5,1.953A3.567,3.567,0,0,1,18.655-.406,3.984,3.984,0,0,1,16.674.084Zm0-1.176a2.505,2.505,0,0,0,1.281-.329,2.322,2.322,0,0,0,.889-.924,2.822,2.822,0,0,0,.322-1.365,2.822,2.822,0,0,0-.322-1.365,2.274,2.274,0,0,0-.889-.917,2.548,2.548,0,0,0-1.281-.322,2.548,2.548,0,0,0-1.281.322,2.321,2.321,0,0,0-.9.917,2.774,2.774,0,0,0-.329,1.365A2.774,2.774,0,0,0,14.5-2.345a2.371,2.371,0,0,0,.9.924A2.505,2.505,0,0,0,16.674-1.092Zm9.674-6.4a3.066,3.066,0,0,1,2.247.819,3.221,3.221,0,0,1,.833,2.4V0H28.084V-4.116a2.278,2.278,0,0,0-.518-1.624,1.948,1.948,0,0,0-1.484-.546,2.312,2.312,0,0,0-1.722.637,2.489,2.489,0,0,0-.63,1.827V0H22.386V-7.42h1.288V-6.3a2.612,2.612,0,0,1,1.1-.882A3.84,3.84,0,0,1,26.348-7.49Zm7.7,7.574A6.218,6.218,0,0,1,32.3-.161a3.843,3.843,0,0,1-1.316-.623l.56-1.064a4.02,4.02,0,0,0,1.19.56,4.9,4.9,0,0,0,1.414.21q1.764,0,1.764-1.008a.653.653,0,0,0-.238-.532,1.507,1.507,0,0,0-.6-.287q-.357-.091-1.015-.2A9.947,9.947,0,0,1,32.6-3.43a2.255,2.255,0,0,1-.973-.616,1.714,1.714,0,0,1-.406-1.218,1.9,1.9,0,0,1,.84-1.617,3.762,3.762,0,0,1,2.254-.609,6.209,6.209,0,0,1,1.484.182,3.991,3.991,0,0,1,1.218.49l-.574,1.064A3.859,3.859,0,0,0,34.3-6.342a2.476,2.476,0,0,0-1.3.28.845.845,0,0,0-.448.742.707.707,0,0,0,.252.574,1.594,1.594,0,0,0,.623.308q.371.1,1.043.224a11.32,11.32,0,0,1,1.449.329,2.164,2.164,0,0,1,.945.595,1.657,1.657,0,0,1,.392,1.176,1.854,1.854,0,0,1-.861,1.6A4.066,4.066,0,0,1,34.048.084ZM46.634-7.49a3.9,3.9,0,0,1,1.932.476A3.424,3.424,0,0,1,49.9-5.684a3.941,3.941,0,0,1,.483,1.974A3.98,3.98,0,0,1,49.9-1.729,3.411,3.411,0,0,1,48.566-.392a3.9,3.9,0,0,1-1.932.476,3.514,3.514,0,0,1-1.512-.322,2.91,2.91,0,0,1-1.134-.938V0H42.7V-10.388h1.344V-6.3a2.854,2.854,0,0,1,1.12-.889A3.555,3.555,0,0,1,46.634-7.49Zm-.112,6.4A2.505,2.505,0,0,0,47.8-1.421a2.371,2.371,0,0,0,.9-.924,2.774,2.774,0,0,0,.329-1.365A2.774,2.774,0,0,0,48.7-5.075a2.321,2.321,0,0,0-.9-.917,2.548,2.548,0,0,0-1.281-.322,2.559,2.559,0,0,0-1.274.322,2.261,2.261,0,0,0-.9.917A2.822,2.822,0,0,0,44.03-3.71a2.822,2.822,0,0,0,.322,1.365,2.308,2.308,0,0,0,.9.924A2.516,2.516,0,0,0,46.522-1.092ZM58.6-7.42,55.006.742a3.681,3.681,0,0,1-1.113,1.6A2.54,2.54,0,0,1,52.36,2.8,3.24,3.24,0,0,1,51.3,2.625a2.17,2.17,0,0,1-.847-.511l.574-1.008a1.871,1.871,0,0,0,1.33.546,1.283,1.283,0,0,0,.819-.259A2.209,2.209,0,0,0,53.774.5l.238-.518L50.736-7.42h1.4l2.59,5.936L57.288-7.42ZM63.826-9.8h1.4v8.582h5.306V0H63.826Zm8.12,2.38H73.29V0H71.946Zm.672-1.428a.9.9,0,0,1-.651-.252.827.827,0,0,1-.259-.616.849.849,0,0,1,.259-.623.883.883,0,0,1,.651-.259.91.91,0,0,1,.651.245.8.8,0,0,1,.259.609.866.866,0,0,1-.259.637A.883.883,0,0,1,72.618-8.848Zm7.2,1.358a3.066,3.066,0,0,1,2.247.819,3.221,3.221,0,0,1,.833,2.4V0H81.55V-4.116a2.278,2.278,0,0,0-.518-1.624,1.948,1.948,0,0,0-1.484-.546,2.312,2.312,0,0,0-1.722.637,2.489,2.489,0,0,0-.63,1.827V0H75.852V-7.42H77.14V-6.3a2.612,2.612,0,0,1,1.1-.882A3.84,3.84,0,0,1,79.814-7.49Zm12.32,3.822a3.851,3.851,0,0,1-.028.406h-6.02a2.33,2.33,0,0,0,.861,1.575,2.81,2.81,0,0,0,1.827.6,2.752,2.752,0,0,0,2.142-.9l.742.868a3.25,3.25,0,0,1-1.253.9,4.361,4.361,0,0,1-1.673.308A4.382,4.382,0,0,1,86.646-.4,3.445,3.445,0,0,1,85.239-1.75a3.873,3.873,0,0,1-.5-1.96,3.933,3.933,0,0,1,.483-1.946,3.46,3.46,0,0,1,1.33-1.351,3.789,3.789,0,0,1,1.911-.483,3.712,3.712,0,0,1,1.9.483,3.392,3.392,0,0,1,1.3,1.351A4.116,4.116,0,0,1,92.134-3.668ZM88.466-6.356a2.323,2.323,0,0,0-1.617.588,2.37,2.37,0,0,0-.763,1.54h4.76a2.386,2.386,0,0,0-.763-1.533A2.307,2.307,0,0,0,88.466-6.356ZM94.192-9.8h1.4V0h-1.4ZM101.57.084a4.121,4.121,0,0,1-2.023-.49,3.59,3.59,0,0,1-1.393-1.351,3.793,3.793,0,0,1-.5-1.953,3.793,3.793,0,0,1,.5-1.953,3.541,3.541,0,0,1,1.393-1.344,4.169,4.169,0,0,1,2.023-.483,3.883,3.883,0,0,1,1.8.406,2.892,2.892,0,0,1,1.225,1.176l-1.022.658a2.283,2.283,0,0,0-.868-.8,2.476,2.476,0,0,0-1.148-.266,2.654,2.654,0,0,0-1.309.322,2.3,2.3,0,0,0-.91.917,2.774,2.774,0,0,0-.329,1.365,2.8,2.8,0,0,0,.329,1.379,2.3,2.3,0,0,0,.91.917,2.654,2.654,0,0,0,1.309.322,2.476,2.476,0,0,0,1.148-.266,2.283,2.283,0,0,0,.868-.8l1.022.644a2.936,2.936,0,0,1-1.225,1.183A3.829,3.829,0,0,1,101.57.084Zm7.826,0a4.024,4.024,0,0,1-1.988-.49,3.553,3.553,0,0,1-1.379-1.351,3.835,3.835,0,0,1-.5-1.953,3.835,3.835,0,0,1,.5-1.953,3.5,3.5,0,0,1,1.379-1.344A4.07,4.07,0,0,1,109.4-7.49a4.03,4.03,0,0,1,1.981.483,3.517,3.517,0,0,1,1.372,1.344,3.835,3.835,0,0,1,.5,1.953,3.835,3.835,0,0,1-.5,1.953,3.567,3.567,0,0,1-1.372,1.351A3.984,3.984,0,0,1,109.4.084Zm0-1.176a2.505,2.505,0,0,0,1.281-.329,2.322,2.322,0,0,0,.889-.924,2.822,2.822,0,0,0,.322-1.365,2.822,2.822,0,0,0-.322-1.365,2.274,2.274,0,0,0-.889-.917,2.548,2.548,0,0,0-1.281-.322,2.548,2.548,0,0,0-1.281.322,2.321,2.321,0,0,0-.9.917,2.774,2.774,0,0,0-.329,1.365,2.774,2.774,0,0,0,.329,1.365,2.371,2.371,0,0,0,.9.924A2.505,2.505,0,0,0,109.4-1.092Zm9.674-6.4a3.066,3.066,0,0,1,2.247.819,3.221,3.221,0,0,1,.833,2.4V0h-1.344V-4.116a2.278,2.278,0,0,0-.518-1.624,1.948,1.948,0,0,0-1.484-.546,2.312,2.312,0,0,0-1.722.637,2.489,2.489,0,0,0-.63,1.827V0h-1.344V-7.42H116.4V-6.3a2.612,2.612,0,0,1,1.1-.882A3.84,3.84,0,0,1,119.07-7.49Zm7.7,7.574a6.218,6.218,0,0,1-1.75-.245A3.843,3.843,0,0,1,123.7-.784l.56-1.064a4.02,4.02,0,0,0,1.19.56,4.9,4.9,0,0,0,1.414.21q1.764,0,1.764-1.008a.653.653,0,0,0-.238-.532,1.507,1.507,0,0,0-.6-.287q-.357-.091-1.015-.2a9.947,9.947,0,0,1-1.463-.322,2.255,2.255,0,0,1-.973-.616,1.714,1.714,0,0,1-.406-1.218,1.9,1.9,0,0,1,.84-1.617,3.762,3.762,0,0,1,2.254-.609,6.209,6.209,0,0,1,1.484.182,3.991,3.991,0,0,1,1.218.49l-.574,1.064a3.859,3.859,0,0,0-2.142-.588,2.476,2.476,0,0,0-1.3.28.845.845,0,0,0-.448.742.707.707,0,0,0,.252.574,1.594,1.594,0,0,0,.623.308q.371.1,1.043.224a11.32,11.32,0,0,1,1.449.329,2.164,2.164,0,0,1,.945.595,1.657,1.657,0,0,1,.392,1.176,1.854,1.854,0,0,1-.861,1.6A4.066,4.066,0,0,1,126.77.084Z" transform="translate(142 866.412)" fill="#dee5fc"/></g></svg>