<svg xmlns="http://www.w3.org/2000/svg" width="196" height="235.227" viewBox="0 0 196 235.227"><g transform="translate(-874.5 792.227)"><g transform="translate(895.5 -792.227)"><path d="M77.17,0C38.838,0,8,32.279,8,72.917,8,107.5,55.554,164.279,70.253,181.283c1.441,2.306,4.611,3.17,6.917,3.17a8.8,8.8,0,0,0,6.917-3.17c14.7-16.716,62.253-74.358,62.253-108.366C146.34,32.279,115.5,0,77.17,0Zm0,166.008C50.943,135.17,23.275,94.532,23.275,72.917c0-32.279,23.921-57.642,53.895-57.642S131.065,41.5,131.065,72.917C131.065,94.532,103.4,135.17,77.17,166.008Z" fill="#fff"/><path d="M52.138,13.3A30.838,30.838,0,1,0,82.977,44.138,30.873,30.873,0,0,0,52.138,13.3Zm0,46.113A15.275,15.275,0,1,1,67.413,44.138,15.376,15.376,0,0,1,52.138,59.413Z" transform="translate(25.032 25.032)" fill="#fff"/></g><text transform="translate(874.5 -563)" fill="#fff" font-size="24" font-family="Montserrat-Bold, Montserrat" font-weight="700"><tspan x="0" y="0">LUDYCOM TEST</tspan></text></g></svg>