<svg xmlns="http://www.w3.org/2000/svg" width="18" height="16.356" viewBox="0 0 18 16.356"><path d="M8.9,19.256a1.474,1.474,0,0,1-1.208-.534L1.511,12.09A5.742,5.742,0,0,1,.528,5.654,4.936,4.936,0,0,1,4.94,2.9a5.02,5.02,0,0,1,3.6,1.574l.365.365.365-.365a4.881,4.881,0,0,1,3.6-1.574h0a4.881,4.881,0,0,1,3.6,1.574,5.2,5.2,0,0,1,1.49,3.738,5.639,5.639,0,0,1-1.405,3.738L10.42,18.5a2.462,2.462,0,0,1-.674.534,1.893,1.893,0,0,1-.843.225Zm-.056-1.574.084.084c.084,0,.141-.112.2-.2l6.211-6.689a4.057,4.057,0,0,0,1.04-2.7,3.8,3.8,0,0,0-1.04-2.7,3.313,3.313,0,0,0-2.529-1.124h0A3.272,3.272,0,0,0,10.28,5.486L8.874,6.975,7.469,5.486A3.517,3.517,0,0,0,5,4.446a3.654,3.654,0,0,0-3.2,1.967,4.237,4.237,0,0,0,.787,4.693Z" transform="translate(0.048 -2.9)" fill="#6185ff"/></svg>