<svg xmlns="http://www.w3.org/2000/svg" width="411" height="411" viewBox="0 0 411 411"><g transform="translate(0 -57)"><g transform="translate(-767 1112)"><path d="M0,0H411V411H0Z" transform="translate(767 -1055)" fill="rgba(255,255,255,0)"/></g><path d="M1291.6-856.639a9.028,9.028,0,0,1-2.988-1.4l1.319-2.928a8.931,8.931,0,0,0,2.569,1.272,9.632,9.632,0,0,0,2.975.481,4.755,4.755,0,0,0,2.448-.492,1.486,1.486,0,0,0,.792-1.308,1.249,1.249,0,0,0-.468-1,3.552,3.552,0,0,0-1.2-.636q-.732-.24-1.98-.527a27.324,27.324,0,0,1-3.144-.913,5.115,5.115,0,0,1-2.1-1.463,3.96,3.96,0,0,1-.876-2.688,4.673,4.673,0,0,1,.792-2.652,5.324,5.324,0,0,1,2.388-1.884,9.742,9.742,0,0,1,3.9-.7,12.936,12.936,0,0,1,3.144.383,9.318,9.318,0,0,1,2.688,1.1l-1.2,2.952a9.365,9.365,0,0,0-4.656-1.32,4.366,4.366,0,0,0-2.412.528,1.612,1.612,0,0,0-.78,1.392,1.361,1.361,0,0,0,.9,1.283,14.133,14.133,0,0,0,2.749.828,27.379,27.379,0,0,1,3.144.913,5.2,5.2,0,0,1,2.1,1.44,3.858,3.858,0,0,1,.877,2.664,4.586,4.586,0,0,1-.8,2.628,5.4,5.4,0,0,1-2.412,1.884,9.84,9.84,0,0,1-3.911.7A13.74,13.74,0,0,1,1291.6-856.639Zm-79.152-.588a8.374,8.374,0,0,1-3.288-3.108,8.487,8.487,0,0,1-1.188-4.452,8.487,8.487,0,0,1,1.188-4.452,8.368,8.368,0,0,1,3.288-3.108,9.8,9.8,0,0,1,4.716-1.128,9.734,9.734,0,0,1,4.7,1.128,8.484,8.484,0,0,1,3.288,3.108,8.42,8.42,0,0,1,1.2,4.452,8.42,8.42,0,0,1-1.2,4.452,8.49,8.49,0,0,1-3.288,3.108,9.743,9.743,0,0,1-4.7,1.128A9.812,9.812,0,0,1,1212.444-857.227Zm2.028-12.252a4.9,4.9,0,0,0-1.884,1.908,5.6,5.6,0,0,0-.684,2.784,5.6,5.6,0,0,0,.684,2.784,4.9,4.9,0,0,0,1.884,1.908,5.33,5.33,0,0,0,2.688.684,5.33,5.33,0,0,0,2.688-.684,4.909,4.909,0,0,0,1.884-1.908,5.6,5.6,0,0,0,.684-2.784,5.6,5.6,0,0,0-.684-2.784,4.909,4.909,0,0,0-1.884-1.908,5.33,5.33,0,0,0-2.688-.684A5.33,5.33,0,0,0,1214.472-869.478Zm-19.283,12.263a8.321,8.321,0,0,1-3.264-3.1,8.527,8.527,0,0,1-1.188-4.476,8.527,8.527,0,0,1,1.188-4.476,8.321,8.321,0,0,1,3.264-3.1,9.692,9.692,0,0,1,4.667-1.116,9.791,9.791,0,0,1,3.948.768,7.911,7.911,0,0,1,2.964,2.208l-2.5,2.3a5.365,5.365,0,0,0-4.224-1.967,5.608,5.608,0,0,0-2.785.684,4.863,4.863,0,0,0-1.908,1.908,5.611,5.611,0,0,0-.684,2.784,5.613,5.613,0,0,0,.684,2.784,4.863,4.863,0,0,0,1.908,1.908,5.608,5.608,0,0,0,2.785.684,5.342,5.342,0,0,0,4.224-1.992l2.5,2.3a7.787,7.787,0,0,1-2.975,2.232,9.879,9.879,0,0,1-3.96.768A9.643,9.643,0,0,1,1195.188-857.215Zm-55.057-.876a7.67,7.67,0,0,1-2-5.688v-9.408h3.888v9.264q0,4.512,3.744,4.512a3.508,3.508,0,0,0,2.784-1.092,5.092,5.092,0,0,0,.96-3.42v-9.264h3.839v9.408a7.67,7.67,0,0,1-2,5.688,7.605,7.605,0,0,1-5.6,1.992A7.605,7.605,0,0,1,1140.132-858.091Zm168.349,1.7v-13.631H1303.1v-3.168h14.64v3.168h-5.376v13.631Zm-34.656,0v-16.8h12.7v3.119h-8.833v3.649h7.8v3.024h-7.8v3.888h9.144v3.119Zm-11.352,0v-13.631H1257.1v-3.168h14.64v3.168h-5.376v13.631Zm-17.9,0-.023-10.08-4.945,8.3h-1.751l-4.92-8.088v9.864h-3.648v-16.8h3.216l6.288,10.44,6.192-10.44h3.191l.049,16.8Zm-64.1,0v-6l-6.5-10.8h4.128l4.487,7.464,4.488-7.464h3.816l-6.528,10.848v5.952Zm-23.28,0v-16.8h7.632a10.715,10.715,0,0,1,4.836,1.044,7.814,7.814,0,0,1,3.264,2.939,8.273,8.273,0,0,1,1.164,4.416,8.273,8.273,0,0,1-1.164,4.416,7.814,7.814,0,0,1-3.264,2.939,10.715,10.715,0,0,1-4.836,1.044Zm3.888-3.191h3.552a5.645,5.645,0,0,0,4.019-1.4,4.96,4.96,0,0,0,1.5-3.8,4.96,4.96,0,0,0-1.5-3.8,5.645,5.645,0,0,0-4.019-1.4h-3.552Zm-37.08,3.191v-16.8h3.888v13.631h8.424v3.168Zm89.261-47.943c-14.7-17-62.253-73.782-62.253-108.366,0-40.638,30.839-72.917,69.17-72.917s69.17,32.279,69.17,72.917c0,34.008-47.554,91.65-62.253,108.366a8.8,8.8,0,0,1-6.917,3.17C1217.864-901.16,1214.694-902.025,1213.253-904.33ZM1166.275-1012.7c0,21.615,27.668,62.253,53.895,93.091,26.227-30.838,53.9-71.475,53.9-93.091,0-31.415-23.922-57.642-53.9-57.642S1166.275-1044.976,1166.275-1012.7Zm23.057-3.747a30.873,30.873,0,0,1,30.838-30.838,30.873,30.873,0,0,1,30.839,30.838,30.873,30.873,0,0,1-30.839,30.838A30.873,30.873,0,0,1,1189.332-1016.443Zm15.563,0a15.377,15.377,0,0,0,15.275,15.275,15.377,15.377,0,0,0,15.276-15.275,15.377,15.377,0,0,0-15.276-15.276A15.377,15.377,0,0,0,1204.895-1016.443Z" transform="translate(-1014.992 1233.613)" fill="#fff"/></g></svg>